#!OML:ASF H:\BabyWalks\Project 1\Capture day 1\Session 1\baby.ASF
:FULLY-SPECIFIED
:DEGREES
593
root 24.6766 17.3935 -1.45545 509.432 101.259 501.67
lowerback 19.0879 2.37865 1.24608
upperback 7.30565 3.70178 -0.720201
thorax -2.67582 2.02858 -2.24401
lowerneck -1.85754 5.46683 10.5026
upperneck 1.7924 7.18137 -7.17291
head 1.63384 3.58415 -4.07683
rclavicle 7.95139e-015 -7.95139e-016
rhumerus -39.9605 6.07203 -80.4609
rradius 46.8875
rwrist 3.09513
rhand -9.24777 -16.5196
rfingers 7.12502
rthumb 16.7079 -45.8206
lclavicle 7.95139e-015 -7.95139e-016
lhumerus -35.5338 -3.46345 76.7875
lradius 48.7909
lwrist 0.830437
lhand 0.692241 12.3244
lfingers 7.12502
lthumb 26.2533 40.5282
rfemur 11.5495 6.86052 20.3688
rtibia 17.2325
rfoot -8.55674 -0.724906
rtoes -28.3828
lfemur -31.4492 3.31789 -12.2306
ltibia 43.2662
lfoot -19.7531 1.4654
ltoes -1.9983
594
root 24.7222 17.4143 -1.47553 509.736 101.336 502.105
lowerback 19.1244 2.43737 1.11284
upperback 7.28297 3.75156 -0.775032
thorax -2.72111 2.05084 -2.2401
lowerneck -1.90836 5.49566 10.5056
upperneck 1.98638 7.21841 -7.08928
head 1.70705 3.60485 -4.04318
rclavicle -3.18055e-014 -2.62396e-014
rhumerus -39.9092 5.83361 -80.3884
rradius 46.6258
rwrist 3.3786
rhand -9.13749 -16.6216
rfingers 7.12502
rthumb 16.8141 -45.9136
lclavicle -3.18055e-014 -2.62396e-014
lhumerus -35.4126 -3.46349 76.7928
lradius 48.7591
lwrist 0.882114
lhand 0.575188 12.3224
lfingers 7.12502
lthumb 26.1412 40.5428
rfemur 10.1334 6.39947 19.9617
rtibia 20.107
rfoot -7.87223 0.286381
rtoes -27.9504
lfemur -30.8908 3.25351 -12.3123
ltibia 42.8364
lfoot -19.7414 1.55804
ltoes -1.96181
595
root 24.767 17.4358 -1.49571 510.2 101.415 502.708
lowerback 19.1774 2.50009 0.94776
upperback 7.26356 3.80081 -0.837752
thorax -2.77296 2.07268 -2.22747
lowerneck -1.94978 5.52274 10.5127
upperneck 2.15609 7.25345 -7.01942
head 1.77123 3.62445 -4.0158
rclavicle -1.19271e-014 2.46493e-014
rhumerus -39.8642 5.63724 -80.3377
rradius 46.451
rwrist 3.64659
rhand -8.99572 -16.7261
rfingers 7.12502
rthumb 16.9506 -46.0065
lclavicle -1.19271e-014 2.46493e-014
lhumerus -35.2924 -3.49613 76.7923
lradius 48.7676
lwrist 0.955567
lhand 0.503841 12.3317
lfingers 7.12502
lthumb 26.0729 40.5623
rfemur 8.69853 5.94646 19.5155
rtibia 22.9372
rfoot -6.9344 1.27869
rtoes -27.3721
lfemur -30.3095 3.19748 -12.4272
ltibia 42.3704
lfoot -19.707 1.66202
ltoes -1.93393
596
root 24.8109 17.4576 -1.51559 510.804 101.494 503.461
lowerback 19.2501 2.56454 0.749957
upperback 7.24949 3.84652 -0.907496
thorax -2.83102 2.09273 -2.20423
lowerneck -1.97803 5.55117 10.5301
upperneck 2.29142 7.29084 -6.9709
head 1.82345 3.64497 -3.99855
rclavicle -2.38542e-015 1.51076e-014
rhumerus -39.8274 5.49203 -80.313
rradius 46.3746
rwrist 3.89357
rhand -8.82081 -16.8279
rfingers 7.12502
rthumb 17.1189 -46.0938
lclavicle -2.38542e-015 1.51076e-014
lhumerus -35.1771 -3.56199 76.7823
lradius 48.8244
lwrist 1.05715
lhand 0.485216 12.3632
lfingers 7.12502
lthumb 26.055 40.5963
rfemur 7.25014 5.51657 19.0449
rtibia 25.7312
rfoot -5.80668 2.20806
rtoes -26.7439
lfemur -29.702 3.15216 -12.5728
ltibia 41.8713
lfoot -19.6522 1.77371
ltoes -1.91615
597
root 24.8539 17.4795 -1.53485 511.547 101.571 504.368
lowerback 19.341 2.63314 0.521886
upperback 7.24234 3.89219 -0.985004
thorax -2.89255 2.11288 -2.17317
lowerneck -1.98503 5.57741 10.5623
upperneck 2.38081 7.32647 -6.95183
head 1.85861 3.66427 -3.99565
rclavicle -1.19271e-015 -3.97569e-015
rhumerus -39.8024 5.39307 -80.3145
rradius 46.4013
rwrist 4.10385
rhand -8.61755 -16.9205
rfingers 7.12502
rthumb 17.3146 -46.1692
lclavicle -1.19271e-015 -3.97569e-015
lhumerus -35.0652 -3.67493 76.7667
lradius 48.9333
lwrist 1.18567
lhand 0.514493 12.4025
lfingers 7.12502
lthumb 26.0831 40.6315
rfemur 5.79642 5.1288 18.5612
rtibia 28.4875
rfoot -4.56478 3.03081
rtoes -26.1129
lfemur -29.0682 3.1164 -12.7513
ltibia 41.3417
lfoot -19.5764 1.89265
ltoes -1.91675
598
root 24.8961 17.5012 -1.5533 512.433 101.641 505.434
lowerback 19.4458 2.70449 0.2616
upperback 7.24308 3.93541 -1.07232
thorax -2.9543 2.13208 -2.1346
lowerneck -1.9642 5.6032 10.6016
upperneck 2.41825 7.36317 -6.95399
head 1.87295 3.68376 -4.00273
rclavicle 3.89618e-014 -2.22639e-014
rhumerus -39.7945 5.34119 -80.3462
rradius 46.5353
rwrist 4.26896
rhand -8.38812 -17.0055
rfingers 7.12502
rthumb 17.5354 -46.2347
lclavicle 3.89618e-014 -2.22639e-014
lhumerus -34.9594 -3.84087 76.7444
lradius 49.0953
lwrist 1.34501
lhand 0.588188 12.4591
lfingers 7.12502
lthumb 26.1536 40.6776
rfemur 4.35097 4.78099 18.0662
rtibia 31.1997
rfoot -3.31967 3.71135
rtoes -25.5815
lfemur -28.4068 3.08748 -12.9692
ltibia 40.7852
lfoot -19.4834 2.01711
ltoes -1.93265
599
root 24.9379 17.5224 -1.57049 513.421 101.702 506.621
lowerback 19.563 2.77642 -0.0272242
upperback 7.25169 3.974 -1.16665
thorax -3.01546 2.14927 -2.08709
lowerneck -1.91416 5.63103 10.6539
upperneck 2.40603 7.40463 -6.98515
head 1.86804 3.70527 -4.02363
rclavicle -3.26007e-014 1.98785e-014
rhumerus -39.8021 5.34605 -80.4105
rradius 46.7709
rwrist 4.37636
rhand -8.14286 -17.0722
rfingers 7.12502
rthumb 17.7714 -46.2802
lclavicle -3.26007e-014 1.98785e-014
lhumerus -34.8615 -4.05241 76.7144
lradius 49.3071
lwrist 1.52588
lhand 0.700287 12.5215
lfingers 7.12502
lthumb 26.261 40.7242
rfemur 2.92696 4.46827 17.5738
rtibia 33.8586
rfoot -2.19212 4.23504
rtoes -25.1959
lfemur -27.7191 3.06214 -13.2186
ltibia 40.2058
lfoot -19.3769 2.14607
ltoes -1.96781
600
root 24.979 17.543 -1.58613 514.506 101.752 507.921
lowerback 19.6863 2.84959 -0.34142
upperback 7.27026 4.0094 -1.26827
thorax -3.07026 2.16532 -2.03257
lowerneck -1.84112 5.66135 10.7071
upperneck 2.34809 7.45088 -7.03186
head 1.84504 3.7288 -4.05101
rclavicle 4.81059e-014 -1.11319e-014
rhumerus -39.8224 5.39214 -80.5056
rradius 47.1023
rwrist 4.43126
rhand -7.889 -17.1181
rfingers 7.12502
rthumb 18.0156 -46.3037
lclavicle 4.81059e-014 -1.11319e-014
lhumerus -34.7668 -4.31202 76.6769
lradius 49.5641
lwrist 1.72736
lhand 0.838198 12.5791
lfingers 7.12502
lthumb 26.393 40.7621
rfemur 1.53226 4.18001 17.0875
rtibia 36.4524
rfoot -1.28934 4.59058
rtoes -24.9164
lfemur -27.0099 3.03599 -13.4985
ltibia 39.6083
lfoot -19.256 2.27917
ltoes -2.00399
601
root 25.0199 17.5627 -1.60013 515.664 101.79 509.308
lowerback 19.8104 2.91943 -0.678405
upperback 7.29719 4.03609 -1.37524
thorax -3.11775 2.17744 -1.96897
lowerneck -1.75245 5.69945 10.7512
upperneck 2.26079 7.50877 -7.08731
head 1.81061 3.75786 -4.07996
rclavicle -4.53229e-014 3.4191e-014
rhumerus -39.8526 5.49482 -80.6342
rradius 47.5153
rwrist 4.42372
rhand -7.64035 -17.1348
rfingers 7.12502
rthumb 18.2549 -46.2982
lclavicle -4.53229e-014 3.4191e-014
lhumerus -34.6785 -4.60466 76.6292
lradius 49.8593
lwrist 1.93795
lhand 0.991006 12.6293
lfingers 7.12502
lthumb 26.5392 40.7902
rfemur 0.173204 3.8941 16.6091
rtibia 38.9668
rfoot -0.68098 4.77761
rtoes -24.7031
lfemur -26.2843 3.00174 -13.8054
ltibia 38.9986
lfoot -19.1256 2.41853
ltoes -2.03553
602
root 25.0604 17.5815 -1.61235 516.856 101.812 510.738
lowerback 19.9331 2.98444 -1.02801
upperback 7.33139 4.05403 -1.48582
thorax -3.15731 2.18563 -1.90002
lowerneck -1.65202 5.74428 10.7876
upperneck 2.15416 7.57667 -7.14881
head 1.76861 3.79174 -4.10972
rclavicle -5.12864e-014 3.26007e-014
rhumerus -39.8871 5.64023 -80.7925
rradius 47.9937
rwrist 4.36347
rhand -7.39668 -17.1188
rfingers 7.12502
rthumb 18.4893 -46.2601
lclavicle -5.12864e-014 3.26007e-014
lhumerus -34.5924 -4.92169 76.57
lradius 50.1845
lwrist 2.14806
lhand 1.14239 12.663
lfingers 7.12502
lthumb 26.6841 40.8019
rfemur -1.15066 3.59248 16.1468
rtibia 41.385
rfoot -0.40424 4.79347
rtoes -24.4883
lfemur -25.5528 2.95222 -14.1299
ltibia 38.3841
lfoot -18.987 2.56413
ltoes -2.05879
603
root 25.1006 17.5992 -1.6227 518.041 101.819 512.167
lowerback 20.0486 3.04129 -1.38407
upperback 7.37315 4.06037 -1.59503
thorax -3.18557 2.18845 -1.82284
lowerneck -1.55208 5.79763 10.809
upperneck 2.04393 7.65616 -7.21057
head 1.72601 3.83125 -4.13626
rclavicle -8.07066e-014 1.66979e-014
rhumerus -39.9167 5.83193 -80.9776
rradius 48.5201
rwrist 4.24578
rhand -7.17953 -17.0697
rfingers 7.12502
rthumb 18.6981 -46.191
lclavicle -8.07066e-014 1.66979e-014
lhumerus -34.5067 -5.24159 76.4985
lradius 50.5332
lwrist 2.35134
lhand 1.27995 12.6758
lfingers 7.12502
lthumb 26.8158 40.7946
rfemur -2.43986 3.25615 15.7084
rtibia 43.6888
rfoot -0.452599 4.65362
rtoes -24.2535
lfemur -24.8226 2.88337 -14.4619
ltibia 37.7732
lfoot -18.8449 2.71677
ltoes -2.07578
604
root 25.1406 17.6157 -1.63124 519.176 101.81 513.544
lowerback 20.1537 3.08822 -1.7326
upperback 7.41941 4.05544 -1.70239
thorax -3.20315 2.18601 -1.7447
lowerneck -1.46904 5.85936 10.813
upperneck 1.95424 7.7458 -7.26069
head 1.69293 3.8758 -4.15426
rclavicle 1.47101e-014 3.18055e-015
rhumerus -39.9393 6.04974 -81.1845
rradius 49.0778
rwrist 4.08758
rhand -6.99006 -16.9812
rfingers 7.12502
rthumb 18.8804 -46.0849
lclavicle 1.47101e-014 3.18055e-015
lhumerus -34.42 -5.56431 76.4111
lradius 50.896
lwrist 2.55131
lhand 1.38594 12.6695
lfingers 7.12502
lthumb 26.9172 40.7727
rfemur -3.68903 2.87267 15.3015
rtibia 45.8339
rfoot -0.769953 4.38499
rtoes -23.9085
lfemur -24.0917 2.7914 -14.7906
ltibia 37.1423
lfoot -18.6848 2.87202
ltoes -2.08905
605
root 25.1804 17.6309 -1.63811 520.207 101.783 514.809
lowerback 20.247 3.12263 -2.06091
upperback 7.46768 4.03837 -1.80338
thorax -3.21155 2.17784 -1.66767
lowerneck -1.39028 5.92143 10.8165
upperneck 1.88223 7.83599 -7.31161
head 1.66667 3.92079 -4.17221
rclavicle -6.20208e-014 -7.95139e-015
rhumerus -39.9521 6.28221 -81.4075
rradius 49.652
rwrist 3.88645
rhand -6.84161 -16.8624
rfingers 7.12502
rthumb 19.0232 -45.9521
lclavicle -6.20208e-014 -7.95139e-015
lhumerus -34.3299 -5.8689 76.308
lradius 51.2647
lwrist 2.73735
lhand 1.45506 12.6506
lfingers 7.12502
lthumb 26.9833 40.7436
rfemur -4.91365 2.43205 14.939
rtibia 47.8287
rfoot -1.30989 4.02872
rtoes -23.4506
lfemur -23.3853 2.67018 -15.1033
ltibia 36.5325
lfoot -18.528 3.03345
ltoes -2.10217
606
root 25.2215 17.6526 -1.64393 521.088 101.739 515.914
lowerback 20.3289 3.14121 -2.35943
upperback 7.51711 4.00688 -1.89457
thorax -3.21146 2.16276 -1.59298
lowerneck -1.3196 5.98254 10.7851
upperneck 1.91251 7.93575 -7.67833
head 1.51822 3.95623 -3.85125
rclavicle -1.74931e-014 -1.11319e-014
rhumerus -39.9471 6.52453 -81.6395
rradius 50.2309
rwrist 3.64815
rhand -6.73606 -16.719
rfingers 7.12502
rthumb 19.1247 -45.7987
lclavicle -1.74931e-014 -1.11319e-014
lhumerus -34.2341 -6.14177 76.1871
lradius 51.6323
lwrist 2.91704
lhand 1.47438 12.6183
lfingers 7.12502
lthumb 27.0018 40.7084
rfemur -6.09955 1.93664 14.6347
rtibia 49.6325
rfoot -2.01175 3.62339
rtoes -22.9145
lfemur -22.6869 2.51947 -15.3913
ltibia 35.9346
lfoot -18.385 3.20232
ltoes -2.11914
